{
	"asset":{
		"generator":"Khronos glTF Blender I/O v3.5.30",
		"version":"2.0"
	},
	"extensionsUsed":[
		"KHR_materials_transmission",
		"KHR_materials_specular",
		"KHR_materials_ior"
	],
	"scene":0,
	"scenes":[
		{
			"name":"Scene",
			"nodes":[
				0
			]
		}
	],
	"nodes":[
		{
			"mesh":0,
			"name":"SM_RoughRock01_low.005",
			"rotation":[
				0,
				-0.8907051682472229,
				0,
				0.45458149909973145
			],
			"translation":[
				0.038997188210487366,
				7.901317119598389,
				-0.14694690704345703
			]
		}
	],
	"animations":[
		{
			"channels":[
				{
					"sampler":0,
					"target":{
						"node":0,
						"path":"translation"
					}
				},
				{
					"sampler":1,
					"target":{
						"node":0,
						"path":"rotation"
					}
				},
				{
					"sampler":2,
					"target":{
						"node":0,
						"path":"scale"
					}
				}
			],
			"name":"c1-action",
			"samplers":[
				{
					"input":5,
					"interpolation":"LINEAR",
					"output":6
				},
				{
					"input":5,
					"interpolation":"LINEAR",
					"output":7
				},
				{
					"input":8,
					"interpolation":"LINEAR",
					"output":9
				}
			]
		}
	],
	"materials":[
		{
			"alphaMode":"BLEND",
			"doubleSided":true,
			"extensions":{
				"KHR_materials_transmission":{
					"transmissionFactor":0.9100000262260437
				},
				"KHR_materials_specular":{
					"specularColorFactor":[
						0.9748000073432922,
						0.9748000073432922,
						0.9748000073432922
					]
				},
				"KHR_materials_ior":{
					"ior":2
				}
			},
			"name":"crystal1",
			"pbrMetallicRoughness":{
				"baseColorFactor":[
					0.7991030812263489,
					0.7614339590072632,
					0.6993977427482605,
					0.813725471496582
				],
				"metallicFactor":0,
				"roughnessFactor":0
			}
		}
	],
	"meshes":[
		{
			"name":"SM_RoughRock01_low.005",
			"primitives":[
				{
					"attributes":{
						"COLOR_0":0,
						"POSITION":1,
						"TEXCOORD_0":2,
						"NORMAL":3
					},
					"indices":4,
					"material":0
				}
			]
		}
	],
	"accessors":[
		{
			"bufferView":0,
			"componentType":5123,
			"count":560,
			"normalized":true,
			"type":"VEC4"
		},
		{
			"bufferView":1,
			"componentType":5126,
			"count":560,
			"max":[
				1.1440104246139526,
				1.6137065887451172,
				0.880508542060852
			],
			"min":[
				-0.5285378694534302,
				-0.01883024349808693,
				-1.143691062927246
			],
			"type":"VEC3"
		},
		{
			"bufferView":2,
			"componentType":5126,
			"count":560,
			"type":"VEC2"
		},
		{
			"bufferView":3,
			"componentType":5126,
			"count":560,
			"type":"VEC3"
		},
		{
			"bufferView":4,
			"componentType":5123,
			"count":2778,
			"type":"SCALAR"
		},
		{
			"bufferView":5,
			"componentType":5126,
			"count":240,
			"max":[
				10
			],
			"min":[
				0.041666666666666664
			],
			"type":"SCALAR"
		},
		{
			"bufferView":6,
			"componentType":5126,
			"count":240,
			"type":"VEC3"
		},
		{
			"bufferView":7,
			"componentType":5126,
			"count":240,
			"type":"VEC4"
		},
		{
			"bufferView":8,
			"componentType":5126,
			"count":241,
			"max":[
				10
			],
			"min":[
				0
			],
			"type":"SCALAR"
		},
		{
			"bufferView":9,
			"componentType":5126,
			"count":241,
			"type":"VEC3"
		}
	],
	"bufferViews":[
		{
			"buffer":0,
			"byteLength":4480,
			"byteOffset":0,
			"target":34962
		},
		{
			"buffer":0,
			"byteLength":6720,
			"byteOffset":4480,
			"target":34962
		},
		{
			"buffer":0,
			"byteLength":4480,
			"byteOffset":11200,
			"target":34962
		},
		{
			"buffer":0,
			"byteLength":6720,
			"byteOffset":15680,
			"target":34962
		},
		{
			"buffer":0,
			"byteLength":5556,
			"byteOffset":22400,
			"target":34963
		},
		{
			"buffer":0,
			"byteLength":960,
			"byteOffset":27956
		},
		{
			"buffer":0,
			"byteLength":2880,
			"byteOffset":28916
		},
		{
			"buffer":0,
			"byteLength":3840,
			"byteOffset":31796
		},
		{
			"buffer":0,
			"byteLength":964,
			"byteOffset":35636
		},
		{
			"buffer":0,
			"byteLength":2892,
			"byteOffset":36600
		}
	],
	"buffers":[
		{
			"byteLength":39492,
			"uri":"c1.bin"
		}
	]
}
