{
	"asset":{
		"generator":"Khronos glTF Blender I/O v3.5.30",
		"version":"2.0"
	},
	"extensionsUsed":[
		"KHR_materials_transmission",
		"KHR_materials_specular",
		"KHR_materials_ior"
	],
	"scene":0,
	"scenes":[
		{
			"name":"Scene",
			"nodes":[
				0
			]
		}
	],
	"nodes":[
		{
			"mesh":0,
			"name":"SM_RoughRock03_low.002",
			"rotation":[
				0.17383547127246857,
				-0.1973484307527542,
				-0.3233660161495209,
				0.9089935421943665
			],
			"translation":[
				6.511978626251221,
				5.079200744628906,
				-0.0209575816988945
			]
		}
	],
	"animations":[
		{
			"channels":[
				{
					"sampler":0,
					"target":{
						"node":0,
						"path":"translation"
					}
				},
				{
					"sampler":1,
					"target":{
						"node":0,
						"path":"rotation"
					}
				},
				{
					"sampler":2,
					"target":{
						"node":0,
						"path":"scale"
					}
				}
			],
			"name":"c6-action",
			"samplers":[
				{
					"input":5,
					"interpolation":"LINEAR",
					"output":6
				},
				{
					"input":5,
					"interpolation":"LINEAR",
					"output":7
				},
				{
					"input":8,
					"interpolation":"LINEAR",
					"output":9
				}
			]
		}
	],
	"materials":[
		{
			"alphaMode":"BLEND",
			"doubleSided":true,
			"extensions":{
				"KHR_materials_transmission":{
					"transmissionFactor":0.942679762840271
				},
				"KHR_materials_specular":{
					"specularColorFactor":[
						0.9561558744615051,
						0.9561558744615051,
						0.9561558744615051
					]
				},
				"KHR_materials_ior":{
					"ior":3.7999982833862305
				}
			},
			"name":"crystal6",
			"pbrMetallicRoughness":{
				"baseColorFactor":[
					0.012949247844517231,
					0,
					0.555194079875946,
					1
				],
				"metallicFactor":0,
				"roughnessFactor":0
			}
		}
	],
	"meshes":[
		{
			"name":"SM_RoughRock03_low.001",
			"primitives":[
				{
					"attributes":{
						"COLOR_0":0,
						"POSITION":1,
						"TEXCOORD_0":2,
						"NORMAL":3
					},
					"indices":4,
					"material":0
				}
			]
		}
	],
	"accessors":[
		{
			"bufferView":0,
			"componentType":5123,
			"count":832,
			"normalized":true,
			"type":"VEC4"
		},
		{
			"bufferView":1,
			"componentType":5126,
			"count":832,
			"max":[
				0.7667311429977417,
				2.3067731857299805,
				0.810824990272522
			],
			"min":[
				-1.7240667343139648,
				-0.25580263137817383,
				-1.4203858375549316
			],
			"type":"VEC3"
		},
		{
			"bufferView":2,
			"componentType":5126,
			"count":832,
			"type":"VEC2"
		},
		{
			"bufferView":3,
			"componentType":5126,
			"count":832,
			"type":"VEC3"
		},
		{
			"bufferView":4,
			"componentType":5123,
			"count":4092,
			"type":"SCALAR"
		},
		{
			"bufferView":5,
			"componentType":5126,
			"count":240,
			"max":[
				10
			],
			"min":[
				0.041666666666666664
			],
			"type":"SCALAR"
		},
		{
			"bufferView":6,
			"componentType":5126,
			"count":240,
			"type":"VEC3"
		},
		{
			"bufferView":7,
			"componentType":5126,
			"count":240,
			"type":"VEC4"
		},
		{
			"bufferView":8,
			"componentType":5126,
			"count":241,
			"max":[
				10
			],
			"min":[
				0
			],
			"type":"SCALAR"
		},
		{
			"bufferView":9,
			"componentType":5126,
			"count":241,
			"type":"VEC3"
		}
	],
	"bufferViews":[
		{
			"buffer":0,
			"byteLength":6656,
			"byteOffset":0,
			"target":34962
		},
		{
			"buffer":0,
			"byteLength":9984,
			"byteOffset":6656,
			"target":34962
		},
		{
			"buffer":0,
			"byteLength":6656,
			"byteOffset":16640,
			"target":34962
		},
		{
			"buffer":0,
			"byteLength":9984,
			"byteOffset":23296,
			"target":34962
		},
		{
			"buffer":0,
			"byteLength":8184,
			"byteOffset":33280,
			"target":34963
		},
		{
			"buffer":0,
			"byteLength":960,
			"byteOffset":41464
		},
		{
			"buffer":0,
			"byteLength":2880,
			"byteOffset":42424
		},
		{
			"buffer":0,
			"byteLength":3840,
			"byteOffset":45304
		},
		{
			"buffer":0,
			"byteLength":964,
			"byteOffset":49144
		},
		{
			"buffer":0,
			"byteLength":2892,
			"byteOffset":50108
		}
	],
	"buffers":[
		{
			"byteLength":53000,
			"uri":"c2.bin"
		}
	]
}
