{
	"asset":{
		"generator":"Khronos glTF Blender I/O v3.5.30",
		"version":"2.0"
	},
	"extensionsUsed":[
		"KHR_materials_transmission",
		"KHR_materials_specular",
		"KHR_materials_ior"
	],
	"scene":0,
	"scenes":[
		{
			"name":"Scene",
			"nodes":[
				0
			]
		}
	],
	"nodes":[
		{
			"mesh":0,
			"name":"SM_RoughRock01_low.004",
			"rotation":[
				-0.7004178762435913,
				-0.6904529929161072,
				-0.12875908613204956,
				0.12692749500274658
			],
			"translation":[
				8.026881217956543,
				-0.031733572483062744,
				-0.09444507211446762
			]
		}
	],
	"animations":[
		{
			"channels":[
				{
					"sampler":0,
					"target":{
						"node":0,
						"path":"translation"
					}
				},
				{
					"sampler":1,
					"target":{
						"node":0,
						"path":"rotation"
					}
				},
				{
					"sampler":2,
					"target":{
						"node":0,
						"path":"scale"
					}
				}
			],
			"name":"c2-action",
			"samplers":[
				{
					"input":5,
					"interpolation":"LINEAR",
					"output":6
				},
				{
					"input":5,
					"interpolation":"LINEAR",
					"output":7
				},
				{
					"input":8,
					"interpolation":"LINEAR",
					"output":9
				}
			]
		}
	],
	"materials":[
		{
			"alphaMode":"BLEND",
			"doubleSided":true,
			"extensions":{
				"KHR_materials_transmission":{
					"transmissionFactor":0.6256862878799438
				},
				"KHR_materials_specular":{
					"specularColorFactor":[
						1.0851121215010369,
						0.8761788733985346,
						0.43951200116952405
					]
				},
				"KHR_materials_ior":{
					"ior":2
				}
			},
			"name":"crystal2",
			"pbrMetallicRoughness":{
				"baseColorFactor":[
					0.7991030812263489,
					0.645239531993866,
					0.32366737723350525,
					0.8954248428344727
				],
				"metallicFactor":0,
				"roughnessFactor":0
			}
		}
	],
	"meshes":[
		{
			"name":"SM_RoughRock01_low.004",
			"primitives":[
				{
					"attributes":{
						"COLOR_0":0,
						"POSITION":1,
						"TEXCOORD_0":2,
						"NORMAL":3
					},
					"indices":4,
					"material":0
				}
			]
		}
	],
	"accessors":[
		{
			"bufferView":0,
			"componentType":5123,
			"count":502,
			"normalized":true,
			"type":"VEC4"
		},
		{
			"bufferView":1,
			"componentType":5126,
			"count":502,
			"max":[
				1.334022045135498,
				2.5758566856384277,
				0.8985328078269958
			],
			"min":[
				-0.664168119430542,
				0.0040548257529735565,
				-0.9867908358573914
			],
			"type":"VEC3"
		},
		{
			"bufferView":2,
			"componentType":5126,
			"count":502,
			"type":"VEC2"
		},
		{
			"bufferView":3,
			"componentType":5126,
			"count":502,
			"type":"VEC3"
		},
		{
			"bufferView":4,
			"componentType":5123,
			"count":2616,
			"type":"SCALAR"
		},
		{
			"bufferView":5,
			"componentType":5126,
			"count":240,
			"max":[
				9.958333333333334
			],
			"min":[
				0
			],
			"type":"SCALAR"
		},
		{
			"bufferView":6,
			"componentType":5126,
			"count":240,
			"type":"VEC3"
		},
		{
			"bufferView":7,
			"componentType":5126,
			"count":240,
			"type":"VEC4"
		},
		{
			"bufferView":8,
			"componentType":5126,
			"count":241,
			"max":[
				10
			],
			"min":[
				0
			],
			"type":"SCALAR"
		},
		{
			"bufferView":9,
			"componentType":5126,
			"count":241,
			"type":"VEC3"
		}
	],
	"bufferViews":[
		{
			"buffer":0,
			"byteLength":4016,
			"byteOffset":0,
			"target":34962
		},
		{
			"buffer":0,
			"byteLength":6024,
			"byteOffset":4016,
			"target":34962
		},
		{
			"buffer":0,
			"byteLength":4016,
			"byteOffset":10040,
			"target":34962
		},
		{
			"buffer":0,
			"byteLength":6024,
			"byteOffset":14056,
			"target":34962
		},
		{
			"buffer":0,
			"byteLength":5232,
			"byteOffset":20080,
			"target":34963
		},
		{
			"buffer":0,
			"byteLength":960,
			"byteOffset":25312
		},
		{
			"buffer":0,
			"byteLength":2880,
			"byteOffset":26272
		},
		{
			"buffer":0,
			"byteLength":3840,
			"byteOffset":29152
		},
		{
			"buffer":0,
			"byteLength":964,
			"byteOffset":32992
		},
		{
			"buffer":0,
			"byteLength":2892,
			"byteOffset":33956
		}
	],
	"buffers":[
		{
			"byteLength":36848,
			"uri":"c3.bin"
		}
	]
}
