{
	"asset":{
		"generator":"Khronos glTF Blender I/O v3.5.30",
		"version":"2.0"
	},
	"extensionsUsed":[
		"KHR_materials_transmission",
		"KHR_materials_specular",
		"KHR_materials_ior"
	],
	"scene":0,
	"scenes":[
		{
			"name":"Scene",
			"nodes":[
				0
			]
		}
	],
	"nodes":[
		{
			"mesh":0,
			"name":"SM_RoughRock01_low",
			"rotation":[
				0,
				0,
				-0.9056731462478638,
				0.4239766001701355
			],
			"translation":[
				6.290069103240967,
				-5.410089015960693,
				0
			]
		}
	],
	"animations":[
		{
			"channels":[
				{
					"sampler":0,
					"target":{
						"node":0,
						"path":"translation"
					}
				},
				{
					"sampler":1,
					"target":{
						"node":0,
						"path":"rotation"
					}
				},
				{
					"sampler":2,
					"target":{
						"node":0,
						"path":"scale"
					}
				}
			],
			"name":"c4-action",
			"samplers":[
				{
					"input":5,
					"interpolation":"LINEAR",
					"output":6
				},
				{
					"input":5,
					"interpolation":"LINEAR",
					"output":7
				},
				{
					"input":8,
					"interpolation":"LINEAR",
					"output":9
				}
			]
		}
	],
	"materials":[
		{
			"alphaMode":"BLEND",
			"doubleSided":true,
			"extensions":{
				"KHR_materials_transmission":{
					"transmissionFactor":0.8936601281166077
				},
				"KHR_materials_specular":{
					"specularColorFactor":[
						0.22843564149980325,
						1.231330764889079,
						1.2436311916289935
					]
				},
				"KHR_materials_ior":{
					"ior":2
				}
			},
			"name":"crystal4",
			"pbrMetallicRoughness":{
				"baseColorFactor":[
					0.18368439376354218,
					0.9901092648506165,
					1,
					0.640522837638855
				],
				"metallicFactor":0,
				"roughnessFactor":0
			}
		}
	],
	"meshes":[
		{
			"name":"SM_RoughRock01_low",
			"primitives":[
				{
					"attributes":{
						"COLOR_0":0,
						"POSITION":1,
						"TEXCOORD_0":2,
						"NORMAL":3
					},
					"indices":4,
					"material":0
				}
			]
		}
	],
	"accessors":[
		{
			"bufferView":0,
			"componentType":5123,
			"count":588,
			"normalized":true,
			"type":"VEC4"
		},
		{
			"bufferView":1,
			"componentType":5126,
			"count":588,
			"max":[
				0.938300371170044,
				1.9794580936431885,
				0.776554524898529
			],
			"min":[
				-1.2121421098709106,
				-0.007551160175353289,
				-0.9607675671577454
			],
			"type":"VEC3"
		},
		{
			"bufferView":2,
			"componentType":5126,
			"count":588,
			"type":"VEC2"
		},
		{
			"bufferView":3,
			"componentType":5126,
			"count":588,
			"type":"VEC3"
		},
		{
			"bufferView":4,
			"componentType":5123,
			"count":2946,
			"type":"SCALAR"
		},
		{
			"bufferView":5,
			"componentType":5126,
			"count":240,
			"max":[
				10
			],
			"min":[
				0.041666666666666664
			],
			"type":"SCALAR"
		},
		{
			"bufferView":6,
			"componentType":5126,
			"count":240,
			"type":"VEC3"
		},
		{
			"bufferView":7,
			"componentType":5126,
			"count":240,
			"type":"VEC4"
		},
		{
			"bufferView":8,
			"componentType":5126,
			"count":241,
			"max":[
				10
			],
			"min":[
				0
			],
			"type":"SCALAR"
		},
		{
			"bufferView":9,
			"componentType":5126,
			"count":241,
			"type":"VEC3"
		}
	],
	"bufferViews":[
		{
			"buffer":0,
			"byteLength":4704,
			"byteOffset":0,
			"target":34962
		},
		{
			"buffer":0,
			"byteLength":7056,
			"byteOffset":4704,
			"target":34962
		},
		{
			"buffer":0,
			"byteLength":4704,
			"byteOffset":11760,
			"target":34962
		},
		{
			"buffer":0,
			"byteLength":7056,
			"byteOffset":16464,
			"target":34962
		},
		{
			"buffer":0,
			"byteLength":5892,
			"byteOffset":23520,
			"target":34963
		},
		{
			"buffer":0,
			"byteLength":960,
			"byteOffset":29412
		},
		{
			"buffer":0,
			"byteLength":2880,
			"byteOffset":30372
		},
		{
			"buffer":0,
			"byteLength":3840,
			"byteOffset":33252
		},
		{
			"buffer":0,
			"byteLength":964,
			"byteOffset":37092
		},
		{
			"buffer":0,
			"byteLength":2892,
			"byteOffset":38056
		}
	],
	"buffers":[
		{
			"byteLength":40948,
			"uri":"c4.bin"
		}
	]
}
